# xmcd
#
# Track frame offsets:
#	150
#	17550
#	32325
#	45675
#	66655
#	83820
#
# Disc length: 1281 seconds
#
# Revision: 2
# Processed by: cddbd v1.5.2PL0 Copyright (c) Steve Scherf et al.
# Submitted via: audiograbber 1.83.01
#
DISCID=4404ff06
DTITLE=Various Artist - fast forward
DYEAR=1999
DGENRE=Country
TTITLE0=Chad Brock - Evangeline
TTITLE1=The Mummble Ducks - Rocks and Bottles
TTITLE2=Kidzup - Smile, Smile, Smile
TTITLE3=Nikki Leonti - It'll Be Alright
TTITLE4=Peterr Sabourin - Drifting Cowboy Band
TTITLE5=Elizabeth Patterson - Pengalleon
EXTD=An Exclusive Columbia House Limited-Edition CD!
EXTT0=
EXTT1=
EXTT2=
EXTT3=
EXTT4=
EXTT5=
PLAYORDER=
